<svg xmlns="http://www.w3.org/2000/svg" xmlns:xlink="http://www.w3.org/1999/xlink" width="1920" zoomAndPan="magnify" viewBox="0 0 1440 374.999991" height="500" preserveAspectRatio="xMidYMid meet" version="1.0"><defs><g/><clipPath id="32446207cb"><path d="M 0 12 L 181 12 L 181 145 L 0 145 Z M 0 12 " clip-rule="nonzero"/></clipPath><clipPath id="e556df6cc9"><path d="M 1310 12 L 1440 12 L 1440 145 L 1310 145 Z M 1310 12 " clip-rule="nonzero"/></clipPath><clipPath id="3073aa8402"><rect x="0" width="1440" y="0" height="201"/></clipPath></defs><g transform="matrix(1, 0, 0, 1, 0, 89)"><g clip-path="url(#3073aa8402)"><g clip-path="url(#32446207cb)"><g fill="#b8581d" fill-opacity="1"><g transform="translate(0.0162225, 144.10327)"><g><path d="M 110.34375 0 L 89.328125 -73.71875 L 68.3125 0 L 35.03125 0 L -2.390625 -131.375 L 30.890625 -131.375 L 53.34375 -41.234375 L 54.140625 -41.234375 L 78.03125 -131.375 L 100.640625 -131.375 L 124.515625 -41.234375 L 125.3125 -41.234375 L 147.765625 -131.375 L 180.890625 -131.375 L 143.46875 0 Z M 110.34375 0 "/></g></g></g></g><g fill="#b8581d" fill-opacity="1"><g transform="translate(178.498127, 144.10327)"><g><path d="M 39.484375 -131.375 L 39.484375 0 L 9.546875 0 L 9.546875 -131.375 Z M 39.484375 -131.375 "/></g></g></g><g fill="#b8581d" fill-opacity="1"><g transform="translate(227.536859, 144.10327)"><g><path d="M 39.484375 -131.375 L 39.484375 -26.28125 L 84.71875 -26.28125 L 84.71875 0 L 9.546875 0 L 9.546875 -131.375 Z M 39.484375 -131.375 "/></g></g></g><g fill="#b8581d" fill-opacity="1"><g transform="translate(317.494284, 144.10327)"><g><path d="M 39.484375 -131.375 L 39.484375 -26.28125 L 84.71875 -26.28125 L 84.71875 0 L 9.546875 0 L 9.546875 -131.375 Z M 39.484375 -131.375 "/></g></g></g><g fill="#b8581d" fill-opacity="1"><g transform="translate(407.451709, 144.10327)"><g><path d="M 39.484375 -131.375 L 39.484375 0 L 9.546875 0 L 9.546875 -131.375 Z M 39.484375 -131.375 "/></g></g></g><g fill="#b8581d" fill-opacity="1"><g transform="translate(456.490457, 144.10327)"><g><path d="M 76.265625 -131.375 L 129.296875 0 L 97.140625 0 L 87.421875 -26.28125 L 37.421875 -26.28125 L 27.703125 0 L -4.453125 0 L 48.5625 -131.375 Z M 77.234375 -52.546875 L 62.578125 -90.765625 L 62.265625 -90.765625 L 47.609375 -52.546875 Z M 77.234375 -52.546875 "/></g></g></g><g fill="#b8581d" fill-opacity="1"><g transform="translate(581.316328, 144.10327)"><g><path d="M 118.15625 0 L 111.9375 -77.859375 L 111.140625 -77.859375 L 84.234375 -0.796875 L 66.40625 -0.796875 L 39.484375 -77.859375 L 38.6875 -77.859375 L 32.484375 0 L 2.546875 0 L 14.328125 -131.375 L 46.171875 -131.375 L 75.3125 -55.578125 L 104.453125 -131.375 L 136.296875 -131.375 L 148.09375 0 Z M 118.15625 0 "/></g></g></g><g fill="#b8581d" fill-opacity="1"><g transform="translate(731.935285, 144.10327)"><g/></g></g><g fill="#b8581d" fill-opacity="1"><g transform="translate(775.401479, 144.10327)"><g><path d="M 128.34375 -73.5625 L 128.34375 -45.0625 C 124.945312 -29.457031 117.515625 -17.644531 106.046875 -9.625 C 94.585938 -1.613281 81.796875 2.390625 67.671875 2.390625 C 49.941406 2.390625 34.835938 -4.242188 22.359375 -17.515625 C 9.890625 -30.785156 3.65625 -46.816406 3.65625 -65.609375 C 3.65625 -84.710938 9.757812 -100.84375 21.96875 -114 C 34.175781 -127.164062 49.410156 -133.75 67.671875 -133.75 C 89.015625 -133.75 105.894531 -126.269531 118.3125 -111.3125 L 98.71875 -89.8125 C 91.71875 -101.0625 81.953125 -106.6875 69.421875 -106.6875 C 60.191406 -106.6875 52.3125 -102.675781 45.78125 -94.65625 C 39.25 -86.644531 35.984375 -76.960938 35.984375 -65.609375 C 35.984375 -54.460938 39.25 -44.929688 45.78125 -37.015625 C 52.3125 -29.109375 60.191406 -25.15625 69.421875 -25.15625 C 77.066406 -25.15625 83.726562 -27.460938 89.40625 -32.078125 C 95.082031 -36.703125 97.921875 -42.835938 97.921875 -50.484375 L 67.671875 -50.484375 L 67.671875 -73.5625 Z M 128.34375 -73.5625 "/></g></g></g><g fill="#b8581d" fill-opacity="1"><g transform="translate(907.392103, 144.10327)"><g><path d="M 76.265625 -131.375 L 129.296875 0 L 97.140625 0 L 87.421875 -26.28125 L 37.421875 -26.28125 L 27.703125 0 L -4.453125 0 L 48.5625 -131.375 Z M 77.234375 -52.546875 L 62.578125 -90.765625 L 62.265625 -90.765625 L 47.609375 -52.546875 Z M 77.234375 -52.546875 "/></g></g></g><g fill="#b8581d" fill-opacity="1"><g transform="translate(1032.217973, 144.10327)"><g><path d="M 9.546875 -131.375 L 56.53125 -131.375 C 69.164062 -131.375 79.460938 -128 87.421875 -121.25 C 95.378906 -114.507812 99.359375 -104.878906 99.359375 -92.359375 C 99.359375 -82.691406 96.941406 -74.59375 92.109375 -68.0625 C 87.285156 -61.539062 80.734375 -56.953125 72.453125 -54.296875 L 117.671875 0 L 79.609375 0 L 39.484375 -51.90625 L 39.484375 0 L 9.546875 0 Z M 39.484375 -73.09375 L 43 -73.09375 C 45.757812 -73.09375 48.09375 -73.144531 50 -73.25 C 51.90625 -73.351562 54.078125 -73.722656 56.515625 -74.359375 C 58.960938 -74.992188 60.929688 -75.894531 62.421875 -77.0625 C 63.910156 -78.238281 65.179688 -79.941406 66.234375 -82.171875 C 67.296875 -84.398438 67.828125 -87.101562 67.828125 -90.28125 C 67.828125 -93.46875 67.296875 -96.175781 66.234375 -98.40625 C 65.179688 -100.632812 63.910156 -102.332031 62.421875 -103.5 C 60.929688 -104.664062 58.960938 -105.566406 56.515625 -106.203125 C 54.078125 -106.847656 51.90625 -107.222656 50 -107.328125 C 48.09375 -107.429688 45.757812 -107.484375 43 -107.484375 L 39.484375 -107.484375 Z M 39.484375 -73.09375 "/></g></g></g><g fill="#b8581d" fill-opacity="1"><g transform="translate(1146.217207, 144.10327)"><g><path d="M 79.453125 -27.0625 C 84.023438 -27.0625 88.457031 -27.75 92.75 -29.125 C 97.050781 -30.507812 100.210938 -31.84375 102.234375 -33.125 L 105.25 -35.1875 L 118 -9.71875 C 117.570312 -9.394531 116.984375 -8.96875 116.234375 -8.4375 C 115.492188 -7.90625 113.769531 -6.921875 111.0625 -5.484375 C 108.351562 -4.054688 105.457031 -2.8125 102.375 -1.75 C 99.300781 -0.6875 95.269531 0.265625 90.28125 1.109375 C 85.289062 1.960938 80.144531 2.390625 74.84375 2.390625 C 62.632812 2.390625 51.0625 -0.609375 40.125 -6.609375 C 29.1875 -12.609375 20.375 -20.863281 13.6875 -31.375 C 7 -41.882812 3.65625 -53.238281 3.65625 -65.4375 C 3.65625 -74.675781 5.617188 -83.539062 9.546875 -92.03125 C 13.484375 -100.53125 18.710938 -107.800781 25.234375 -113.84375 C 31.765625 -119.894531 39.378906 -124.722656 48.078125 -128.328125 C 56.785156 -131.941406 65.707031 -133.75 74.84375 -133.75 C 83.332031 -133.75 91.160156 -132.738281 98.328125 -130.71875 C 105.492188 -128.707031 110.5625 -126.695312 113.53125 -124.6875 L 118 -121.65625 L 105.25 -96.171875 C 104.507812 -96.816406 103.394531 -97.585938 101.90625 -98.484375 C 100.425781 -99.390625 97.457031 -100.582031 93 -102.0625 C 88.539062 -103.550781 84.023438 -104.296875 79.453125 -104.296875 C 72.234375 -104.296875 65.757812 -103.128906 60.03125 -100.796875 C 54.300781 -98.460938 49.765625 -95.382812 46.421875 -91.5625 C 43.078125 -87.738281 40.523438 -83.625 38.765625 -79.21875 C 37.015625 -74.8125 36.140625 -70.328125 36.140625 -65.765625 C 36.140625 -55.785156 39.878906 -46.835938 47.359375 -38.921875 C 54.847656 -31.015625 65.546875 -27.0625 79.453125 -27.0625 Z M 79.453125 -27.0625 "/></g></g></g><g fill="#b8581d" fill-opacity="1"><g transform="translate(1266.107308, 144.10327)"><g><path d="M 39.484375 -131.375 L 39.484375 0 L 9.546875 0 L 9.546875 -131.375 Z M 39.484375 -131.375 "/></g></g></g><g clip-path="url(#e556df6cc9)"><g fill="#b8581d" fill-opacity="1"><g transform="translate(1315.146089, 144.10327)"><g><path d="M 76.265625 -131.375 L 129.296875 0 L 97.140625 0 L 87.421875 -26.28125 L 37.421875 -26.28125 L 27.703125 0 L -4.453125 0 L 48.5625 -131.375 Z M 77.234375 -52.546875 L 62.578125 -90.765625 L 62.265625 -90.765625 L 47.609375 -52.546875 Z M 77.234375 -52.546875 "/></g></g></g></g></g></g></svg>